<svg width="1920" height="1080" viewBox="0 0 1920 1080" fill="none" xmlns="http://www.w3.org/2000/svg">
<g clip-path="url(#clip0_26:1358)">
<rect width="1920" height="1080" fill="#0A1640"/>
<g filter="url(#filter0_f_26:1358)">
<path fill-rule="evenodd" clip-rule="evenodd" d="M988.47 -103.731C1089.12 -114.091 1187.59 -236.477 1275.33 -182.161C1360.54 -129.406 1325.09 15.2 1347.51 118.552C1367.44 210.404 1436.31 303.55 1399.21 388.943C1361.98 474.621 1253.33 481.317 1173.25 519.616C1112.46 548.692 1052.79 567.238 988.47 585.398C896.719 611.304 806.97 681.227 717.134 648.402C620.23 612.995 535.365 519.584 513.017 411.674C491.079 305.75 564.235 209.08 605.672 110.207C641.848 23.883 660.862 -83.4033 738.736 -126.925C814.817 -169.445 903.208 -94.9539 988.47 -103.731Z" fill="#FF9B6A"/>
</g>
<g filter="url(#filter1_f_26:1358)">
<path fill-rule="evenodd" clip-rule="evenodd" d="M1760.75 632.269C1872.79 621.909 1982.41 499.523 2080.08 553.839C2174.94 606.594 2135.48 751.2 2160.44 854.552C2182.62 946.404 2259.29 1039.55 2217.99 1124.94C2176.55 1210.62 2055.59 1217.32 1966.45 1255.62C1898.78 1284.69 1832.35 1303.24 1760.75 1321.4C1658.61 1347.3 1558.7 1417.23 1458.7 1384.4C1350.82 1349 1256.35 1255.58 1231.47 1147.67C1207.05 1041.75 1288.49 945.08 1334.62 846.207C1374.89 759.883 1396.05 652.597 1482.74 609.075C1567.44 566.555 1665.84 641.046 1760.75 632.269Z" fill="#D84343"/>
</g>
<g filter="url(#filter2_f_26:1358)">
<path fill-rule="evenodd" clip-rule="evenodd" d="M1194.25 -328.584C1300.7 -322.283 1360.56 -232.423 1439.49 -175.617C1507.86 -126.411 1585.22 -85.5307 1624.1 -19.2207C1666.69 53.4185 1694.43 135.503 1667.13 212.602C1639.28 291.249 1572.24 367.591 1476.36 398.055C1385.82 426.827 1289.86 378.331 1194.25 362.863C1121.8 351.141 1050.52 345.981 985.189 318.588C910.103 287.106 825.993 256.069 792.382 194.366C757.688 130.674 785.62 58.9823 807.161 -8.23969C830.246 -80.2797 855.84 -152.58 920.781 -206.323C994.928 -267.685 1087.19 -334.921 1194.25 -328.584Z" fill="#161E54"/>
</g>
<g filter="url(#filter3_f_26:1358)">
<path fill-rule="evenodd" clip-rule="evenodd" d="M252.267 700.463C355.415 707.475 413.418 807.468 489.897 870.68C556.146 925.436 631.099 970.926 668.773 1044.71C710.044 1125.54 736.917 1216.89 710.467 1302.68C683.486 1390.2 618.518 1475.15 525.621 1509.05C437.887 1541.06 344.906 1487.1 252.267 1469.89C182.063 1456.84 112.999 1451.1 49.6957 1420.62C-23.0594 1385.59 -104.559 1351.05 -137.126 1282.39C-170.744 1211.51 -143.678 1131.74 -122.806 1056.93C-100.438 976.769 -75.638 896.315 -12.7135 836.512C59.1319 768.23 148.533 693.411 252.267 700.463Z" fill="#88E0EF" fill-opacity="0.87"/>
</g>
</g>
<defs>
<filter id="filter0_f_26:1358" x="-241" y="-946" width="2401" height="2353" filterUnits="userSpaceOnUse" color-interpolation-filters="sRGB">
<feFlood flood-opacity="0" result="BackgroundImageFix"/>
<feBlend mode="normal" in="SourceGraphic" in2="BackgroundImageFix" result="shape"/>
<feGaussianBlur stdDeviation="375" result="effect1_foregroundBlur_26:1358"/>
</filter>
<filter id="filter1_f_26:1358" x="477" y="-210" width="2503" height="2353" filterUnits="userSpaceOnUse" color-interpolation-filters="sRGB">
<feFlood flood-opacity="0" result="BackgroundImageFix"/>
<feBlend mode="normal" in="SourceGraphic" in2="BackgroundImageFix" result="shape"/>
<feGaussianBlur stdDeviation="375" result="effect1_foregroundBlur_26:1358"/>
</filter>
<filter id="filter2_f_26:1358" x="26" y="-1079" width="2402" height="2236" filterUnits="userSpaceOnUse" color-interpolation-filters="sRGB">
<feFlood flood-opacity="0" result="BackgroundImageFix"/>
<feBlend mode="normal" in="SourceGraphic" in2="BackgroundImageFix" result="shape"/>
<feGaussianBlur stdDeviation="375" result="effect1_foregroundBlur_26:1358"/>
</filter>
<filter id="filter3_f_26:1358" x="-903" y="-50" width="2374" height="2319" filterUnits="userSpaceOnUse" color-interpolation-filters="sRGB">
<feFlood flood-opacity="0" result="BackgroundImageFix"/>
<feBlend mode="normal" in="SourceGraphic" in2="BackgroundImageFix" result="shape"/>
<feGaussianBlur stdDeviation="375" result="effect1_foregroundBlur_26:1358"/>
</filter>
<clipPath id="clip0_26:1358">
<rect width="1920" height="1080" fill="white"/>
</clipPath>
</defs>
</svg>
