<svg width="126" height="90" viewBox="0 0 126 90" fill="none" xmlns="http://www.w3.org/2000/svg">
<path d="M1.00002 80.2887L1 10.2561C2.4036 9.07416 5.03351 6.59938 4.32432 6.15614C3.61514 5.7129 4.61982 3.82911 5.21081 2.94263L124 8.03992C122.855 29.7958 120.565 74.327 120.565 78.4048C119.24 77.4235 117.945 79.3879 116.908 80.2887C116.072 81.0154 115.404 80.5272 115.024 81.2859L114.393 88.2671L1.00002 80.2887Z" fill="#FDFF84" stroke="black" stroke-width="2"/>
<path d="M119.678 15.3534L118.127 15.575L1.1106 10.2561L1.85857 9.28648M119.678 15.3534L121.008 13.3588M119.678 15.3534L1.85857 9.28648M122.116 11.8074L123.557 7.92905L5.09978 3.16418L4.10249 6.3777M122.116 11.8074L121.008 13.3588M122.116 11.8074L4.10249 6.3777M4.10249 6.3777L2.60654 8.31689M121.008 13.3588L2.60654 8.31689M2.60654 8.31689L1.85857 9.28648" stroke="black"/>
<path d="M118.016 16.0184L114.914 81.3968" stroke="black"/>
<ellipse cx="11.917" cy="13.5324" rx="1.32973" ry="1.21892" transform="rotate(2.76 11.917 13.5324)" fill="#262313"/>
<ellipse cx="22.7629" cy="14.0556" rx="1.32973" ry="1.21892" transform="rotate(2.76 22.7629 14.0556)" fill="#262313"/>
<ellipse cx="33.6098" cy="14.5784" rx="1.32973" ry="1.21892" transform="rotate(2.76 33.6098 14.5784)" fill="#262313"/>
<ellipse cx="44.4567" cy="15.1012" rx="1.32973" ry="1.21892" transform="rotate(2.76 44.4567 15.1012)" fill="#262313"/>
<ellipse cx="55.3034" cy="15.6243" rx="1.32973" ry="1.21892" transform="rotate(2.76 55.3034 15.6243)" fill="#262313"/>
<ellipse cx="66.1504" cy="16.1471" rx="1.32973" ry="1.21892" transform="rotate(2.76 66.1504 16.1471)" fill="#262313"/>
<ellipse cx="76.9973" cy="16.67" rx="1.32973" ry="1.21892" transform="rotate(2.76 76.9973 16.67)" fill="#262313"/>
<ellipse cx="87.844" cy="17.1928" rx="1.32973" ry="1.21892" transform="rotate(2.76 87.844 17.1928)" fill="#262313"/>
<ellipse cx="98.6909" cy="17.7159" rx="1.32973" ry="1.21892" transform="rotate(2.76 98.6909 17.7159)" fill="#262313"/>
<ellipse cx="109.538" cy="18.2387" rx="1.32973" ry="1.21892" transform="rotate(2.76 109.538 18.2387)" fill="#262313"/>
<path d="M16.9261 3.09412C10.9968 -0.555354 12.1041 11.6734 12.1702 12.2215C12.2363 12.7696 12.6076 13.6646 12.6076 13.6646C12.254 13.9061 11.7027 13.8472 11.1792 13.2152C8.95442 3.48202 12.136 1.37224 13.1157 0.732107C13.4883 0.259879 16.8687 -0.263296 16.9261 3.09412Z" fill="black"/>
<path d="M27.805 3.61841C21.8757 -0.031062 22.983 12.1977 23.0491 12.7458C23.1152 13.2939 23.4865 14.1889 23.4865 14.1889C23.1329 14.4304 22.5816 14.3715 22.0581 13.7395C19.8333 4.00631 23.0149 1.89653 23.9946 1.2564C24.3672 0.784171 27.7476 0.260996 27.805 3.61841Z" fill="black"/>
<path d="M38.6839 4.1427C32.7546 0.49323 33.8619 12.722 33.928 13.2701C33.9941 13.8182 34.3655 14.7132 34.3655 14.7132C34.0118 14.9547 33.4605 14.8958 32.937 14.2638C30.7122 4.5306 33.8938 2.42082 34.8735 1.78069C35.2461 1.30846 38.6265 0.785288 38.6839 4.1427Z" fill="black"/>
<path d="M49.563 4.66699C43.6338 1.01752 44.741 13.2462 44.8072 13.7943C44.8733 14.3424 45.2446 15.2375 45.2446 15.2375C44.891 15.479 44.3396 15.4201 43.8162 14.7881C41.5914 5.05489 44.773 2.94511 45.7527 2.30498C46.1253 1.83275 49.5056 1.30958 49.563 4.66699Z" fill="black"/>
<path d="M60.4419 5.19129C54.5127 1.54181 55.6199 13.7705 55.6861 14.3186C55.7522 14.8667 56.1235 15.7617 56.1235 15.7617C55.7699 16.0033 55.2185 15.9444 54.6951 15.3124C52.4703 5.57919 55.6519 3.4694 56.6316 2.82927C57.0042 2.35705 60.3845 1.83387 60.4419 5.19129Z" fill="black"/>
<path d="M71.3209 5.71558C65.3916 2.06611 66.4988 14.2948 66.565 14.8429C66.6311 15.391 67.0024 16.286 67.0024 16.286C66.6488 16.5276 66.0974 16.4687 65.574 15.8367C63.3492 6.10348 66.5308 3.9937 67.5105 3.35357C67.8831 2.88134 71.2634 2.35816 71.3209 5.71558Z" fill="black"/>
<path d="M82.2 6.23999C76.2707 2.59052 77.378 14.8192 77.4441 15.3673C77.5103 15.9154 77.8816 16.8105 77.8816 16.8105C77.528 17.052 76.9766 16.9931 76.4531 16.3611C74.2283 6.62789 77.4099 4.51811 78.3897 3.87798C78.7622 3.40575 82.1426 2.88258 82.2 6.23999Z" fill="black"/>
<path d="M93.0787 6.76428C87.1494 3.11481 88.2566 15.3435 88.3228 15.8916C88.3889 16.4397 88.7602 17.3347 88.7602 17.3347C88.4066 17.5763 87.8553 17.5174 87.3318 16.8854C85.107 7.15218 88.2886 5.0424 89.2683 4.40227C89.6409 3.93004 93.0212 3.40687 93.0787 6.76428Z" fill="black"/>
<path d="M103.958 7.28858C98.0285 3.6391 99.1358 15.8678 99.2019 16.4159C99.2681 16.964 99.6394 17.859 99.6394 17.859C99.2858 18.1006 98.7344 18.0417 98.2109 17.4097C95.9862 7.67648 99.1678 5.56669 100.147 4.92656C100.52 4.45434 103.9 3.93116 103.958 7.28858Z" fill="black"/>
<path d="M114.837 7.81262C108.908 4.16315 110.015 16.3919 110.081 16.94C110.147 17.4881 110.519 18.3831 110.519 18.3831C110.165 18.6246 109.614 18.5657 109.09 17.9337C106.865 8.20052 110.047 6.09074 111.027 5.45061C111.399 4.97838 114.78 4.45521 114.837 7.81262Z" fill="black"/>
<path d="M120.232 15.132L118.792 30.4528C118.792 33.6096 119.508 40.0027 119.508 42.0771C119.508 44.6702 118.127 56.7578 118.127 57.3215C118.127 57.8852 118.127 66.1412 118.127 67.2686C118.127 68.396 117.684 72.6567 117.684 73.6714C117.684 74.4831 117.612 77.8537 117.13 79.8455" stroke="black" stroke-opacity="0.92"/>
<path d="M121.784 12.4724L121.008 27.4562C121.008 30.6346 121.008 37.5135 121.008 39.6021C121.008 42.213 120.011 49.9319 120.011 50.4994C120.011 51.067 120.011 58.8994 120.011 60.0346C120.011 61.1697 118.903 70.2913 118.903 71.313C118.903 72.1303 119.42 76.2886 118.903 78.294" stroke="black" stroke-opacity="0.92"/>
<path d="M118.46 15.7969L117.684 30.4239C117.684 33.5266 117.684 40.2417 117.684 42.2807C117.684 44.8293 116.687 52.3644 116.687 52.9185C116.687 53.4725 116.687 61.1185 116.687 62.2266C116.687 63.3347 116.687 71.5347 116.687 72.532C116.687 73.3298 115.652 77.4446 115.135 79.4023" stroke="black" stroke-opacity="0.92"/>
<path d="M37.6411 57.5202L38.8031 44.3792C39.0461 44.1696 39.2949 44.0741 39.5496 44.0929C39.8042 44.1117 39.9991 44.1688 40.1343 44.2641C40.0944 46.1527 40.0296 47.7053 39.9398 48.9218L39.045 58.7332C39.0241 59.0161 39.0042 59.2848 38.9854 59.5395C38.4815 59.8152 38.074 59.9415 37.7628 59.9186L37.5113 59.8573C37.3751 59.7762 37.2661 59.7112 37.1843 59.6625C37.1157 59.629 37.024 59.5227 36.9092 59.3436C36.7934 59.1786 36.7169 59.0591 36.6797 58.9853C36.6424 58.9114 36.5549 58.7485 36.4171 58.4965C36.2934 58.2456 36.2063 58.0757 36.156 57.9866C36.1068 57.8834 35.7511 57.21 35.0891 55.9665C34.4423 54.7099 34.0309 53.9257 33.8547 53.614C33.6786 53.3024 33.3007 52.6416 32.7211 51.6317C32.1555 50.6228 31.7061 49.8714 31.3728 49.3775C30.3859 47.9108 29.4641 46.7192 28.6073 45.8026C28.5412 47.6609 28.4304 49.6439 28.2748 51.7515C28.1193 53.8592 27.9108 56.1051 27.6495 58.4894C27.461 58.7315 26.9777 58.8238 26.1997 58.7664C26.7896 50.7743 27.1247 45.8497 27.2048 43.9924C27.4924 43.7577 27.7635 43.6497 28.0181 43.6685C28.2727 43.6873 28.515 43.7763 28.7451 43.9355C29.0961 44.1889 29.4813 44.5587 29.9005 45.0448C31.2893 46.6548 32.578 48.4638 33.7667 50.4715C34.9696 52.4803 36.261 54.8299 37.6411 57.5202Z" fill="black"/>
<path d="M45.0538 50.8779C45.8567 49.8279 46.9371 49.3529 48.295 49.4532C49.653 49.5534 50.6944 50.1849 51.4192 51.3478C52.1582 52.5117 52.4755 53.8009 52.3711 55.2154C52.2677 56.6158 51.7344 57.7711 50.7712 58.6814C49.808 59.5916 48.6404 59.9961 47.2683 59.8948C45.8962 59.7936 44.9272 59.338 44.3611 58.5282C43.7962 57.7043 43.5654 56.5921 43.6687 55.1918C43.8034 53.367 44.2651 51.9291 45.0538 50.8779ZM45.9044 52.0714C45.6798 52.6095 45.4976 53.1507 45.3579 53.6951C45.2323 54.2405 45.1517 54.7537 45.1162 55.2346C45.0818 55.7014 45.0853 56.1354 45.1268 56.5367C45.1693 56.9239 45.2614 57.3147 45.4029 57.7091C45.5455 58.0894 45.7782 58.4053 46.101 58.6567C46.4248 58.8939 46.8201 59.0297 47.2869 59.0642C48.2347 59.1341 49.0555 58.8036 49.7495 58.0726C50.4576 57.3426 50.8524 56.426 50.9338 55.3227C51.0152 54.2193 50.797 53.1294 50.2791 52.053C49.7764 50.9634 49.1007 50.3873 48.252 50.3247C47.7428 50.2871 47.2842 50.431 46.8761 50.7565C46.4681 51.0819 46.1442 51.5202 45.9044 52.0714Z" fill="black"/>
<path d="M56.4591 51.6344C55.8226 51.5875 55.4026 51.4 55.1993 51.0721C55.216 50.8458 55.3209 50.6758 55.5142 50.562C55.7217 50.4493 55.9396 50.3872 56.168 50.3756C56.3975 50.3499 56.7678 50.3417 57.2792 50.351C57.3498 49.9722 57.407 49.4857 57.4509 48.8916C57.5099 48.2844 57.5622 47.7692 57.6076 47.3458C57.7326 46.2315 57.9529 45.558 58.2688 45.3253C58.4044 45.2215 58.543 45.1749 58.6845 45.1853C58.8401 45.1968 58.9734 45.2208 59.0845 45.2575C59.0517 46.2791 59.0275 46.896 59.0119 47.1082L58.6496 50.2814C58.6769 50.2977 58.7542 50.3105 58.8815 50.3199L60.4139 50.369C61.5172 50.4504 62.0563 50.6609 62.0313 51.0004C61.9958 51.4813 61.7769 51.7496 61.3745 51.8053C61.1875 51.8341 60.9667 51.8392 60.7121 51.8204C60.4716 51.8026 60.1554 51.7508 59.7635 51.665C59.3868 51.5661 59.1136 51.5104 58.9439 51.4978C58.7741 51.4853 58.6604 51.484 58.6028 51.494C58.5301 51.9011 58.4786 52.3097 58.4483 52.7199C58.4191 53.116 58.3891 53.6187 58.3583 54.228C58.3428 54.8242 58.3466 55.5427 58.3699 56.3835C58.4073 57.2254 58.5592 57.962 58.8255 58.5932C59.0928 59.2103 59.467 59.5365 59.9479 59.572C60.1884 59.5898 60.4781 59.5187 60.817 59.3588C61.157 59.1848 61.4118 59.1041 61.5816 59.1166C61.7654 59.1302 61.9179 59.1841 62.039 59.2784C62.1752 59.3595 62.2396 59.4496 62.2323 59.5486C62.2104 59.8457 61.8849 60.1132 61.2558 60.3512C60.6418 60.5762 60.1227 60.6729 59.6983 60.6416C58.1423 60.5268 57.282 58.9841 57.1172 56.0137C57.0667 55.1567 57.0893 53.6934 57.1852 51.624C56.9557 51.6498 56.7137 51.6532 56.4591 51.6344Z" fill="black"/>
<path d="M66.4836 56.9824C66.4345 57.2632 66.4062 57.4531 66.3989 57.5522C66.3363 58.4009 66.5423 59.0774 67.0171 59.5818C67.506 60.0872 68.1041 60.3661 68.8114 60.4183C69.5187 60.4705 70.0988 60.4137 70.552 60.2481C71.0192 60.0834 71.3602 59.8953 71.575 59.6836C72.1312 59.0846 72.6215 58.8008 73.0458 58.8321C73.2014 58.8436 73.3822 58.8996 73.5881 59.0001C73.3955 59.6828 72.811 60.2797 71.8346 60.7907C70.8734 61.2887 69.6926 61.486 68.2922 61.3826C67.302 61.3095 66.4692 60.9352 65.7937 60.2595C65.1335 59.5708 64.8435 58.6818 64.9239 57.5926C65.0043 56.5034 65.2943 55.4653 65.7938 54.4781C66.3085 53.4779 66.9956 52.6468 67.8552 51.9849C68.7299 51.3099 69.5845 51.0032 70.4191 51.0648C71.2678 51.1275 71.9338 51.3544 72.4169 51.7456C72.9152 52.1237 73.1398 52.6452 73.0908 53.31C72.9999 54.5407 72.3731 55.5184 71.2102 56.2433C70.0626 56.955 68.8734 57.2655 67.6428 57.1746C67.3174 57.1506 66.9311 57.0865 66.4836 56.9824ZM68.1479 56.4012C68.8127 56.4503 69.4225 56.282 69.9772 55.8963C70.5319 55.5105 70.9325 55.0921 71.1792 54.641C71.4399 54.1909 71.5844 53.7749 71.6126 53.3929C71.6408 53.011 71.5168 52.6676 71.2406 52.3628C70.9655 52.0438 70.6299 51.8697 70.2339 51.8405C69.5266 51.7883 68.8328 52.2278 68.1525 53.1589C67.4864 54.0911 66.9874 55.0711 66.6555 56.0991C67.2685 56.2723 67.7659 56.3731 68.1479 56.4012Z" fill="black"/>
<path d="M82.762 53.9812C82.6587 53.6465 82.437 53.3741 82.097 53.1641C81.7569 52.9541 81.3252 52.8298 80.8018 52.7912C80.2784 52.7526 79.7718 52.8716 79.2821 53.1484C78.8065 53.4261 78.5493 53.8267 78.5107 54.3501C78.4721 54.8735 78.6535 55.3064 79.0548 55.6489C79.4714 55.9784 79.9781 56.2433 80.5749 56.4438C81.1858 56.6453 81.7956 56.861 82.4045 57.0909C83.0143 57.3065 83.5163 57.6351 83.9104 58.0767C84.3196 58.5051 84.5003 59.0447 84.4522 59.6954C84.3823 60.6431 83.933 61.3353 83.1043 61.7719C82.2897 62.2096 81.3308 62.3877 80.2275 62.3062C79.5768 62.2582 78.7341 62.0182 77.6993 61.5863C76.6786 61.1554 76.1866 60.6924 76.2231 60.1973C76.2502 59.8295 76.575 59.6686 77.1974 59.7146C77.3813 59.7281 77.6134 59.859 77.8938 60.1073C78.75 60.8389 79.652 61.2397 80.5997 61.3097C81.1089 61.3473 81.5537 61.2948 81.934 61.1522C82.637 60.877 83.0151 60.3786 83.0684 59.6572C83.1007 59.2187 82.9076 58.8489 82.4889 58.5478C82.0844 58.2477 81.5767 57.9969 80.9658 57.7953C80.369 57.5948 79.7662 57.3797 79.1574 57.1499C78.5486 56.92 78.0406 56.5768 77.6334 56.12C77.2414 55.6502 77.0699 55.0829 77.119 54.418C77.1827 53.5552 77.6234 52.8837 78.441 52.4036C79.2587 51.9235 80.2404 51.7257 81.3862 51.8103C82.1642 51.8677 82.8492 52.1245 83.4414 52.5807C84.0487 53.0237 84.3241 53.6272 84.2677 54.391C84.2302 54.9003 83.9214 55.1335 83.3414 55.0907C83.101 55.0729 82.9414 55.0185 82.8628 54.9273C82.7984 54.8372 82.7669 54.6856 82.7684 54.4724C82.7851 54.246 82.783 54.0823 82.762 53.9812Z" fill="black"/>
</svg>
